<svg width="80" height="24" viewBox="0 0 80 24" fill="none" xmlns="http://www.w3.org/2000/svg">
<path d="M7.99992 15.5133L12.1199 17.9999L11.0266 13.3133L14.6666 10.1599L9.87325 9.75325L7.99992 5.33325L6.12658 9.75325L1.33325 10.1599L4.97325 13.3133L3.87992 17.9999L7.99992 15.5133Z" fill="#D9322F"/>
<path d="M23.9999 15.5133L28.1199 17.9999L27.0266 13.3133L30.6666 10.1599L25.8733 9.75325L23.9999 5.33325L22.1266 9.75325L17.3333 10.1599L20.9733 13.3133L19.8799 17.9999L23.9999 15.5133Z" fill="#D9322F"/>
<path d="M39.9999 15.5133L44.1199 17.9999L43.0266 13.3133L46.6666 10.1599L41.8733 9.75325L39.9999 5.33325L38.1266 9.75325L33.3333 10.1599L36.9733 13.3133L35.8799 17.9999L39.9999 15.5133Z" fill="#D9322F"/>
<path d="M55.9999 15.5133L60.1199 17.9999L59.0266 13.3133L62.6666 10.1599L57.8733 9.75325L55.9999 5.33325L54.1266 9.75325L49.3333 10.1599L52.9733 13.3133L51.8799 17.9999L55.9999 15.5133Z" fill="#D9322F"/>
<path d="M71.9999 15.5133L76.1199 17.9999L75.0266 13.3133L78.6666 10.1599L73.8733 9.75325L71.9999 5.33325L70.1266 9.75325L65.3333 10.1599L68.9733 13.3133L67.8799 17.9999L71.9999 15.5133Z" fill="#D9322F"/>
</svg>
