<svg width="23" height="29" viewBox="0 0 23 29" fill="none" xmlns="http://www.w3.org/2000/svg">
<path d="M19.4999 9.66668H18.1666V7.00001C18.1666 3.32001 15.1799 0.333344 11.4999 0.333344C7.81992 0.333344 4.83325 3.32001 4.83325 7.00001V9.66668H3.49992C2.03325 9.66668 0.833252 10.8667 0.833252 12.3333V25.6667C0.833252 27.1333 2.03325 28.3333 3.49992 28.3333H19.4999C20.9666 28.3333 22.1666 27.1333 22.1666 25.6667V12.3333C22.1666 10.8667 20.9666 9.66668 19.4999 9.66668ZM11.4999 21.6667C10.0333 21.6667 8.83325 20.4667 8.83325 19C8.83325 17.5333 10.0333 16.3333 11.4999 16.3333C12.9666 16.3333 14.1666 17.5333 14.1666 19C14.1666 20.4667 12.9666 21.6667 11.4999 21.6667ZM15.6333 9.66668H7.36658V7.00001C7.36658 4.72001 9.21992 2.86668 11.4999 2.86668C13.7799 2.86668 15.6333 4.72001 15.6333 7.00001V9.66668Z" fill="#D9322F"/>
</svg>
