<svg width="120" height="40" viewBox="0 0 120 40" fill="none" xmlns="http://www.w3.org/2000/svg">
<path d="M37.3474 28.9446C37.2127 29.279 37.0865 29.605 36.9351 29.906C36.2284 31.2184 34.8317 31.8286 33.4351 32.0878V29.7053H34.4531C34.6466 29.2121 35.0421 28.8443 35.5553 28.6855C35.7151 28.6019 35.8161 28.4681 35.8498 28.2926C35.8666 28.2926 35.8666 28.2926 35.8666 28.2926C36.0012 27.1975 36.1863 26.0439 36.4135 24.8736C36.5228 24.581 36.4219 24.3135 36.1022 24.2132C35.4123 24.1296 34.7476 23.9958 34.0829 23.8203C32.6526 23.7534 31.2139 23.4357 29.9772 22.6917C28.875 23.2853 28.4712 24.4389 27.8738 25.4504V25.4336C26.4603 27.6238 25.3161 29.9645 24.4327 32.3887C24.3738 32.5392 24.3486 32.698 24.3486 32.8568C24.3486 33.1076 24.4243 33.3417 24.5421 33.5423C25.2151 34.2278 25.6526 35.0721 25.9976 35.9498L23.3389 35.9749C23.3221 35.3396 23.2632 34.7294 22.8846 34.1944C22.5481 33.9018 22.2873 33.651 22.2368 33.1829C22.3125 32.5893 22.6911 32.0627 22.9435 31.5277C23.2548 30.8673 23.4399 30.1651 23.5324 29.4545C23.6334 28.8443 23.8017 28.2424 23.97 27.6405C24.4663 25.9937 24.7103 24.2884 25.0469 22.5998C22.0517 23.0763 19.0144 22.8506 16.0613 22.2487C15.7332 23.9791 15.2368 25.651 14.6058 27.2894C14.3702 28.1421 15.0349 29.0115 15.4555 29.697C16.3894 31.0679 17.4411 32.3386 18.3413 33.7346C18.8882 34.4033 19.3425 35.1557 19.6959 35.9582L16.8858 36L16.8017 34.9801C16.7933 34.8297 16.7933 34.6792 16.6587 34.604C16.2548 34.4786 16.0529 34.1275 15.9099 33.7597C15.5986 33.0157 15.2031 32.2968 14.732 31.6113C13.8654 30.4242 12.8221 29.3877 11.6274 28.5266C11.6274 28.5266 11.6274 28.5266 11.6106 28.5099C11.2993 28.3093 11.2404 27.9833 11.2404 27.6489C11.3582 27.0219 11.4844 26.395 11.5937 25.7597C11.6947 24.5308 11.1394 23.3521 10.1214 22.6332C9.57452 23.4608 8.8762 24.1547 8.10216 24.7816C7.16827 25.4336 6.28486 26.1609 5.46875 26.9551C5.26683 27.1557 5.07332 27.348 4.89664 27.5402C4.46755 28.092 4.17308 28.7356 3.92909 29.3793C3.44111 30.6165 3.08774 31.8119 2.84375 32.9572C2.75962 33.3333 2.85216 33.7095 3.03726 34.0355C3.47476 34.604 3.82812 35.2309 4.08053 35.9248L1.46394 35.9498L1.44712 34.7795C1.46394 34.6708 1.42187 34.6123 1.36298 34.5287H1.34615C0.891827 34.303 0.723558 33.9018 0.790865 33.4169C1.59856 31.4775 1.90144 29.8391 2.38101 28.1003C2.57452 27.4901 2.61659 26.8297 2.54087 26.186C2.49038 25.8767 2.59135 25.5925 2.77644 25.3417C3.08774 24.9655 3.40745 24.5559 3.73558 24.1463C4.41707 23.302 4.72837 22.2487 4.93029 21.2121C5.26683 19.6155 4.96394 17.9352 5.13221 16.2717C5.3762 14.9425 6.13341 13.7722 6.98317 12.7524C3.13822 13.2372 3.53365 19.1139 3.5 22.1066C3.5 22.2989 3.5 22.4828 3.5 22.6917L0 22.6499C0.151442 17.3417 0.84976 11.139 7.66466 11.9331C9.29688 11.3981 10.9207 10.838 12.6538 10.7962C16.6923 10.8297 19.8053 11.9666 23.8185 11.5569C29.4303 10.838 30.0613 4.11703 36.1779 4C36.9435 4 37.726 4.11703 38.4579 4.33438C39.619 4.07524 40.8137 4.00836 42 4.10031C41.369 4.59352 40.78 5.07837 40.1911 5.57994C39.9471 7.12644 40.1322 8.68966 40.0733 10.2445C40.0901 10.7461 39.9555 13.07 39.8377 14.1066C39.905 15.0094 38.9207 15.4692 37.9868 15.3772C37.5156 15.3271 37.482 14.9927 36.8173 14.9091C36.3882 14.6416 36.5481 14.1233 36.506 13.697C36.4303 12.6604 35.9255 11.7241 35.6983 10.7126C35.3281 10.5705 34.9916 10.4033 34.6719 10.2278C33.9483 11.3563 33.5697 12.652 33.5529 13.9728C33.5276 15.1432 33.5108 16.3135 33.5108 17.4838C33.5108 17.4002 33.5108 17.4587 33.494 17.5005C33.4351 18.395 33.1827 19.256 32.762 20.0251C34.3101 20.2842 35.7909 20.7524 37.2043 21.4295C37.7764 21.7471 38.4916 22.0313 38.8702 22.5998C38.887 22.5998 38.887 22.5998 38.887 22.6165C39.0889 22.9342 39.1058 23.302 39.03 23.6531C38.601 25.6176 38.0709 27.4148 37.3474 28.9446Z" fill="#D9322F"/>
<path d="M60.1426 16.7969C60.0905 16.224 59.8587 15.7786 59.4473 15.4609C59.041 15.138 58.4603 14.9766 57.7051 14.9766C57.2051 14.9766 56.7884 15.0417 56.4551 15.1719C56.1217 15.3021 55.8717 15.4818 55.7051 15.7109C55.5384 15.9349 55.4525 16.1927 55.4473 16.4844C55.4368 16.724 55.4837 16.9349 55.5879 17.1172C55.6973 17.2995 55.8535 17.4609 56.0566 17.6016C56.265 17.737 56.515 17.8568 56.8066 17.9609C57.0983 18.0651 57.4264 18.1562 57.791 18.2344L59.166 18.5469C59.9577 18.7188 60.6556 18.9479 61.2598 19.2344C61.8691 19.5208 62.3796 19.862 62.791 20.2578C63.2077 20.6536 63.5228 21.1094 63.7363 21.625C63.9499 22.1406 64.0592 22.7187 64.0645 23.3594C64.0592 24.3698 63.804 25.237 63.2988 25.9609C62.7936 26.6849 62.0671 27.2396 61.1191 27.625C60.1764 28.0104 59.0384 28.2031 57.7051 28.2031C56.3665 28.2031 55.1999 28.0026 54.2051 27.6016C53.2103 27.2005 52.4368 26.5911 51.8848 25.7734C51.3327 24.9557 51.0488 23.9219 51.0332 22.6719H54.7363C54.7676 23.1875 54.9056 23.6172 55.1504 23.9609C55.3952 24.3047 55.7311 24.5651 56.1582 24.7422C56.5905 24.9193 57.0905 25.0078 57.6582 25.0078C58.179 25.0078 58.6217 24.9375 58.9863 24.7969C59.3561 24.6563 59.64 24.4609 59.8379 24.2109C60.0358 23.9609 60.1374 23.6745 60.1426 23.3516C60.1374 23.0495 60.0436 22.7917 59.8613 22.5781C59.679 22.3594 59.3978 22.1719 59.0176 22.0156C58.6426 21.8542 58.1634 21.7057 57.5801 21.5703L55.9082 21.1797C54.5228 20.862 53.4316 20.349 52.6348 19.6406C51.8379 18.9271 51.4421 17.9635 51.4473 16.75C51.4421 15.7604 51.7077 14.8932 52.2441 14.1484C52.7806 13.4036 53.5228 12.8229 54.4707 12.4063C55.4186 11.9896 56.4993 11.7812 57.7129 11.7812C58.9525 11.7812 60.028 11.9922 60.9395 12.4141C61.8561 12.8307 62.5671 13.4167 63.0723 14.1719C63.5775 14.9271 63.8353 15.8021 63.8457 16.7969H60.1426ZM72.791 16V18.8125H65.2207V16H72.791ZM66.8066 13.125H70.627V24.2266C70.627 24.4609 70.6634 24.651 70.7363 24.7969C70.8145 24.9375 70.9264 25.0391 71.0723 25.1016C71.2181 25.1589 71.3926 25.1875 71.5957 25.1875C71.7415 25.1875 71.8952 25.1745 72.0566 25.1484C72.2233 25.1172 72.3483 25.0911 72.4316 25.0703L73.0098 27.8281C72.8275 27.8802 72.5697 27.9453 72.2363 28.0234C71.9082 28.1016 71.515 28.151 71.0566 28.1719C70.1608 28.2135 69.3926 28.1094 68.752 27.8594C68.1165 27.6042 67.6296 27.2083 67.291 26.6719C66.9577 26.1354 66.7962 25.4609 66.8066 24.6484V13.125ZM78.123 28.2031C77.3574 28.2031 76.6777 28.0755 76.084 27.8203C75.4954 27.5599 75.0293 27.1693 74.6855 26.6484C74.347 26.1224 74.1777 25.4635 74.1777 24.6719C74.1777 24.0052 74.2949 23.4427 74.5293 22.9844C74.7637 22.526 75.0866 22.1536 75.498 21.8672C75.9095 21.5807 76.3835 21.3646 76.9199 21.2187C77.4564 21.0677 78.0293 20.9661 78.6387 20.9141C79.321 20.8516 79.8704 20.7865 80.2871 20.7188C80.7038 20.6458 81.0059 20.5443 81.1934 20.4141C81.3861 20.2786 81.4824 20.0885 81.4824 19.8437V19.8047C81.4824 19.4036 81.3444 19.0937 81.0684 18.875C80.7923 18.6562 80.4199 18.5469 79.9512 18.5469C79.446 18.5469 79.0397 18.6562 78.7324 18.875C78.4251 19.0937 78.2298 19.3958 78.1465 19.7812L74.623 19.6562C74.7272 18.9271 74.9954 18.276 75.4277 17.7031C75.8652 17.125 76.4642 16.6719 77.2246 16.3437C77.9902 16.0104 78.9095 15.8438 79.9824 15.8438C80.748 15.8438 81.4538 15.9349 82.0996 16.1172C82.7454 16.2943 83.3079 16.5547 83.7871 16.8984C84.2663 17.237 84.6361 17.6536 84.8965 18.1484C85.1621 18.6432 85.2949 19.2083 85.2949 19.8437V28H81.7012V26.3281H81.6074C81.3939 26.7344 81.1204 27.0781 80.7871 27.3594C80.459 27.6406 80.071 27.8516 79.623 27.9922C79.1803 28.1328 78.6803 28.2031 78.123 28.2031ZM79.3027 25.7031C79.7142 25.7031 80.084 25.6198 80.4121 25.4531C80.7454 25.2865 81.0111 25.0573 81.209 24.7656C81.4069 24.4687 81.5059 24.125 81.5059 23.7344V22.5937C81.3965 22.651 81.2637 22.7031 81.1074 22.75C80.9564 22.7969 80.7897 22.8411 80.6074 22.8828C80.4251 22.9245 80.2376 22.9609 80.0449 22.9922C79.8522 23.0234 79.6673 23.0521 79.4902 23.0781C79.1309 23.1354 78.8236 23.224 78.5684 23.3437C78.3184 23.4635 78.1257 23.6198 77.9902 23.8125C77.86 24 77.7949 24.224 77.7949 24.4844C77.7949 24.8802 77.9355 25.1823 78.2168 25.3906C78.5033 25.599 78.8652 25.7031 79.3027 25.7031ZM87.6309 28V12H91.4512V18.0547H91.5293C91.6855 17.6901 91.9069 17.3385 92.1934 17C92.485 16.6615 92.8548 16.3854 93.3027 16.1719C93.7559 15.9531 94.2975 15.8438 94.9277 15.8438C95.7611 15.8438 96.5397 16.0625 97.2637 16.5C97.9928 16.9375 98.5814 17.612 99.0293 18.5234C99.4772 19.4349 99.7012 20.5964 99.7012 22.0078C99.7012 23.3672 99.485 24.5052 99.0527 25.4219C98.6257 26.3385 98.0475 27.026 97.3184 27.4844C96.5944 27.9427 95.7897 28.1719 94.9043 28.1719C94.3001 28.1719 93.7767 28.0729 93.334 27.875C92.8913 27.6771 92.5189 27.4167 92.2168 27.0937C91.9199 26.7708 91.6908 26.4245 91.5293 26.0547H91.4121V28H87.6309ZM91.373 22C91.373 22.6458 91.459 23.2083 91.6309 23.6875C91.8079 24.1667 92.0605 24.5391 92.3887 24.8047C92.722 25.0651 93.1204 25.1953 93.584 25.1953C94.0527 25.1953 94.4512 25.0651 94.7793 24.8047C95.1074 24.5391 95.3548 24.1667 95.5215 23.6875C95.6934 23.2083 95.7793 22.6458 95.7793 22C95.7793 21.3542 95.6934 20.7943 95.5215 20.3203C95.3548 19.8464 95.1074 19.4792 94.7793 19.2187C94.4564 18.9583 94.0579 18.8281 93.584 18.8281C93.1152 18.8281 92.7168 18.9557 92.3887 19.2109C92.0605 19.4661 91.8079 19.8307 91.6309 20.3047C91.459 20.7786 91.373 21.3437 91.373 22ZM105.523 12V28H101.703V12H105.523ZM113.564 28.2266C112.309 28.2266 111.226 27.9792 110.314 27.4844C109.408 26.9844 108.71 26.2734 108.221 25.3516C107.736 24.4245 107.494 23.3229 107.494 22.0469C107.494 20.8073 107.739 19.724 108.229 18.7969C108.718 17.8646 109.408 17.1406 110.299 16.625C111.189 16.1042 112.239 15.8438 113.447 15.8438C114.301 15.8438 115.083 15.9766 115.791 16.2422C116.499 16.5078 117.111 16.901 117.627 17.4219C118.143 17.9427 118.544 18.5859 118.83 19.3516C119.117 20.112 119.26 20.9844 119.26 21.9687V22.9219H108.83V20.7031H115.705C115.7 20.2969 115.604 19.9349 115.416 19.6172C115.229 19.2995 114.971 19.0521 114.643 18.875C114.32 18.6927 113.947 18.6016 113.525 18.6016C113.098 18.6016 112.715 18.6979 112.377 18.8906C112.038 19.0781 111.77 19.3359 111.572 19.6641C111.374 19.987 111.27 20.3542 111.26 20.7656V23.0234C111.26 23.513 111.356 23.9427 111.549 24.3125C111.742 24.6771 112.015 24.9609 112.369 25.1641C112.723 25.3672 113.145 25.4687 113.635 25.4687C113.973 25.4687 114.281 25.4219 114.557 25.3281C114.833 25.2344 115.07 25.0964 115.268 24.9141C115.465 24.7318 115.614 24.5078 115.713 24.2422L119.221 24.3437C119.075 25.1302 118.755 25.8151 118.26 26.3984C117.77 26.9766 117.127 27.4271 116.33 27.75C115.533 28.0677 114.611 28.2266 113.564 28.2266Z" fill="#D9322F"/>
</svg>
