<svg width="28" height="22" viewBox="0 0 28 22" fill="none" xmlns="http://www.w3.org/2000/svg">
<path d="M27.3334 8.33334V3.00001C27.3334 1.52001 26.1334 0.333344 24.6667 0.333344H3.33341C1.86675 0.333344 0.680081 1.52001 0.680081 3.00001V8.33334C2.14675 8.33334 3.33341 9.53334 3.33341 11C3.33341 12.4667 2.14675 13.6667 0.666748 13.6667V19C0.666748 20.4667 1.86675 21.6667 3.33341 21.6667H24.6667C26.1334 21.6667 27.3334 20.4667 27.3334 19V13.6667C25.8667 13.6667 24.6667 12.4667 24.6667 11C24.6667 9.53334 25.8667 8.33334 27.3334 8.33334ZM15.3334 18.3333H12.6667V15.6667H15.3334V18.3333ZM15.3334 12.3333H12.6667V9.66668H15.3334V12.3333ZM15.3334 6.33334H12.6667V3.66668H15.3334V6.33334Z" fill="#D9322F"/>
</svg>
